Coordinates
version=1
nRows=16
nColumns=36
inDegrees=yes

Units are S.I. units (second, meters, Newtons, ...)
If the header above contains a line with 'inDegrees', this indicates whether rotational values are in degrees (yes) or radians (no).

endheader
time	pelvis_tilt	pelvis_list	pelvis_rotation	pelvis_tx	pelvis_ty	pelvis_tz	hip_flexion_r	hip_adduction_r	hip_rotation_r	knee_angle_r	knee_angle_r_beta	ankle_angle_r	subtalar_angle_r	mtp_angle_r	hip_flexion_l	hip_adduction_l	hip_rotation_l	knee_angle_l	knee_angle_l_beta	ankle_angle_l	subtalar_angle_l	mtp_angle_l	lumbar_extension	lumbar_bending	lumbar_rotation	arm_flex_r	arm_add_r	arm_rot_r	elbow_flex_r	pro_sup_r	arm_flex_l	arm_add_l	arm_rot_l	elbow_flex_l	pro_sup_l
      2.00000000	    -26.05339977	      2.17353321	      0.75605557	     -0.34066892	      0.81808174	     -0.56169189	     85.55114931	     -2.47695399	     11.71926266	     94.38731750	      1.64736946	     17.76540648	    -23.89484567	     -7.44492726	     83.85510657	    -13.42295877	      0.45405317	     89.55322298	      1.56299860	     23.36406688	    -13.04153745	     -7.44492726	    -27.16391412	     -2.19976893	      6.54018141	    128.88310586	    -14.17781148	     28.96623510	     94.49534591	    106.75387871	    121.91205282	     -8.43446710	     35.11920933	     93.76649925	    107.60453151
      2.01000000	    -25.43220060	      2.34106634	      0.42024462	     -0.33508612	      0.83170820	     -0.56157547	     83.41358932	     -2.44080433	     11.81069785	     92.61401772	      1.61641954	     17.44273391	    -23.52647477	     -7.44547664	     81.46552030	    -13.03546651	      0.30242794	     87.75267959	      1.53157319	     23.00380834	    -13.80467059	     -7.44547664	    -26.60172155	     -2.36610755	      6.73053856	    130.13719759	    -14.34691685	     29.63289379	     94.12122178	    106.58140217	    123.64585843	     -8.74026874	     35.33933580	     93.25877302	    107.56403350
      2.02000000	    -24.82436481	      2.54497796	      0.03954164	     -0.32920494	      0.84563063	     -0.56121908	     81.25733340	     -2.43516599	     11.89604923	     90.75915562	      1.58404609	     17.16656474	    -23.18296019	     -7.44651021	     79.02178430	    -12.70903680	      0.06976070	     85.82165302	      1.49787041	     22.32246228	    -14.87400178	     -7.44651021	    -25.94831884	     -2.58900811	      6.91261212	    131.44522910	    -14.48409862	     30.37712788	     93.66485290	    106.15957999	    125.51074930	     -9.00630283	     35.67357728	     92.47214117	    107.46781935
      2.03000000	    -24.10025601	      2.65735684	     -0.24201049	     -0.32270911	      0.86032470	     -0.56116256	     78.88331848	     -2.60661662	     11.82532620	     88.78040243	      1.54951033	     16.67206085	    -22.64705944	     -7.44718550	     76.38469437	    -12.29665503	     -0.08258677	     83.75295066	      1.46176475	     21.97835936	    -15.66773678	     -7.44718550	    -25.31705985	     -2.64250892	      6.93296447	    132.62049979	    -14.55039645	     31.09526634	     93.22861615	    105.82151679	    127.28084844	     -9.22012629	     35.93897006	     91.61147972	    107.38526818
      2.04000000	    -23.35437456	      2.86800026	     -0.48115243	     -0.31586262	      0.87568974	     -0.56147462	     76.44314456	     -2.94853545	     11.81697936	     86.67163250	      1.51270536	     16.28437083	    -22.14942484	     -7.44807238	     73.59388777	    -11.79283589	     -0.41216861	     81.46774944	      1.42188046	     21.30999280	    -16.71374086	     -7.44807238	    -24.69852577	     -2.73542264	      6.95867254	    134.07772905	    -14.65866387	     31.92167355	     92.57955637	    105.32768029	    129.06323056	     -9.31293691	     36.18337836	     90.43024492	    107.35377923
      2.05000000	    -22.56588116	      2.88157935	     -0.74610401	     -0.30857123	      0.89187853	     -0.56163746	     73.85352139	     -3.26787376	     11.52294361	     84.38397640	      1.47277822	     15.65368758	    -21.40940796	     -7.44870250	     70.72377032	    -11.45630003	     -0.62123362	     79.05525993	      1.37977458	     20.76005110	    -17.36232093	     -7.44870250	    -23.96724055	     -2.62185603	      7.02687985	    135.20294240	    -14.69333660	     32.67743590	     91.81337637	    104.96693759	    130.63438147	     -9.41307274	     36.41838699	     89.07470574	    107.27761761
      2.06000000	    -21.83629173	      3.06030151	     -1.13698929	     -0.30119035	      0.90865099	     -0.56159820	     71.33284276	     -3.58943654	     11.34931996	     81.96363650	      1.43053532	     15.10075317	    -20.81682347	     -7.45022247	     67.76451304	    -11.17487533	     -1.08362482	     76.37419191	      1.33298111	     19.45811679	    -18.61842047	     -7.45022247	    -23.18226790	     -2.70201430	      7.26597650	    136.62934592	    -14.85152124	     33.77263823	     90.90538905	    104.26102494	    132.33590168	     -9.66065526	     37.02573091	     87.50077578	    107.41907468
      2.07000000	    -21.12002312	      3.12909362	     -1.47401664	     -0.29355396	      0.92609375	     -0.56155409	     68.73595504	     -3.97039295	     10.99953515	     79.34407757	      1.38481540	     14.13862687	    -20.03021908	     -7.45289662	     64.78814341	    -10.95332087	     -1.50217423	     73.52374688	      1.28323146	     18.18182536	    -19.54216700	     -7.45289662	    -22.32301439	     -2.68730417	      7.30726896	    137.90092909	    -15.03675317	     34.81493361	     89.80857934	    103.28997746	    134.03035895	     -9.99215375	     37.84392874	     85.93190725	    107.69776608
      2.08000000	    -20.41893558	      3.12706217	     -1.78204788	     -0.28555400	      0.94417298	     -0.56151044	     66.06247980	     -4.39233929	     10.53698647	     76.53856147	      1.33584990	     13.01522196	    -19.03476417	     -7.45356514	     61.74351256	    -10.78609103	     -1.90257982	     70.48567712	      1.23020714	     17.34965971	    -19.61917580	     -7.45356514	    -21.38517047	     -2.59155938	      7.37082765	    139.15305289	    -15.47656338	     35.91166806	     88.54102278	    103.01278989	    135.62827109	    -10.44378718	     38.89061050	     84.48907621	    107.59754302
      2.09000000	    -19.66759953	      3.10012020	     -2.13888064	     -0.27713418	      0.96311591	     -0.56135959	     63.23991076	     -4.79107313	     10.01182580	     73.52743538	      1.28329584	     11.75645491	    -18.06440153	     -7.45428908	     58.52663694	    -10.71361619	     -2.43020890	     67.19450428	      1.17276534	     16.03764488	    -19.92412901	     -7.45428908	    -20.44508400	     -2.46685450	      7.58586626	    140.45617105	    -16.28994519	     37.30049899	     87.31931285	    102.69637517	    137.07371480	    -11.06892180	     40.21245949	     83.20066890	    107.49197051
      2.10000000	    -18.87505041	      3.00930456	     -2.54536405	     -0.26829174	      0.98305556	     -0.56108872	     60.26660285	     -5.15757039	      9.35223242	     70.28979682	      1.22678839	     10.21473852	    -16.94015158	     -7.45503114	     55.13447081	    -10.74125415	     -3.02919224	     63.62578323	      1.11047941	     14.37860957	    -20.10369663	     -7.45503114	    -19.50327482	     -2.26274701	      7.95212877	    141.78700806	    -17.44563784	     39.19735942	     86.49131963	    102.36287438	    138.25433764	    -11.93398066	     41.74842236	     82.35078274	    107.36121225
      2.11000000	    -18.10075203	      2.91163365	     -3.01475852	     -0.25902731	      1.00382483	     -0.56069979	     57.22191594	     -5.52127695	      8.61221354	     66.80503048	      1.16596774	      8.30276106	    -15.84835490	     -7.45686558	     51.60379389	    -10.81048570	     -3.75914827	     59.72423147	      1.04238448	     11.92016670	    -20.70727418	     -7.45686558	    -18.44968559	     -2.04018695	      8.66042251	    143.18771907	    -19.12197057	     41.95109415	     86.16469103	    101.41505121	    138.94432966	    -12.93557276	     43.32698796	     82.16552797	    106.93286781
      2.12000000	    -17.19156506	      2.80804379	     -3.58526302	     -0.24919390	      1.02558691	     -0.56001459	     53.90918411	     -5.87201341	      7.82003091	     63.02392257	      1.09997496	      6.25522902	    -14.28547816	     -7.45780121	     47.73475732	    -11.01335286	     -4.79348278	     55.52211138	      0.96904365	      9.99263332	    -20.16557524	     -7.45780121	    -17.48985890	     -1.83264079	      9.40466677	    144.38817686	    -21.02734050	     44.63074928	     86.18583879	    100.95539347	    139.46637226	    -14.52845884	     45.49953941	     82.87401940	    106.77484637
      2.13000000	    -16.31674970	      2.64801332	     -4.16060518	     -0.23878330	      1.04829240	     -0.55915326	     50.45489477	     -6.24287758	      6.83806256	     58.87389800	      1.02754336	      3.83728891	    -12.21873485	     -7.45834978	     43.74769233	    -11.28189405	     -6.07369465	     50.96906867	      0.88957806	      7.70549381	    -19.11730228	     -7.45834978	    -16.38167834	     -1.56635541	     10.13520469	    145.13037178	    -23.35181026	     47.18897313	     86.91824726	    100.77382819	    139.47790103	    -16.58328024	     47.81431243	     84.62661801	    106.82085450
      2.14000000	    -14.97784295	      2.65627329	     -4.75368914	     -0.22783231	      1.07247358	     -0.55847463	     46.37003882	     -6.87098179	      5.83164159	     54.36331573	      0.94881885	      1.33950816	    -10.01266413	     -7.45955711	     38.99444826	    -11.19760928	     -7.61364386	     45.82638811	      0.79982136	      4.25204488	    -18.95873393	     -7.45955711	    -15.82141433	     -1.44304321	     11.12824496	    146.75363976	    -26.13798623	     51.21019714	     87.65391983	    100.24862414	    139.39251411	    -18.96982551	     50.58563262	     86.69909821	    106.53343955
      2.15000000	    -13.61077405	      2.64886156	     -5.22561068	     -0.21610749	      1.09757547	     -0.55783377	     42.00772997	     -7.67299172	      4.53510350	     49.41623548	      0.86247601	     -1.52914237	     -6.95233102	     -7.46053967	     34.04604716	    -11.01390666	     -9.42612005	     40.26534908	      0.70276292	      0.59708579	    -17.68527824	     -7.46053967	    -15.09274687	     -1.28051122	     11.81581485	    147.70570080	    -29.20166271	     54.91795873	     89.24115769	     99.98629667	    138.68982106	    -21.89926974	     53.57575397	     89.55487189	    106.42164320
